SplineFontDB: 3.0
FontName: WalbaumStM
FullName: Sorts Mill Walbaum
FamilyName: Sorts Mill Walbaum
Weight: Regular
Copyright: Copyright (C) 2010 Barry Schwartz
UComments: "2010-2-2: Created." 
Version: 001.000
ItalicAngle: 0
UnderlinePosition: -100
UnderlineWidth: 50
Ascent: 700
Descent: 300
LayerCount: 3
Layer: 0 0 "Back"  1
Layer: 1 0 "Fore"  0
Layer: 2 0 "backup"  0
XUID: [1021 658 797806517 10056847]
FSType: 0
OS2Version: 0
OS2_WeightWidthSlopeOnly: 0
OS2_UseTypoMetrics: 1
CreationTime: 1265176368
ModificationTime: 1265342507
OS2TypoAscent: 0
OS2TypoAOffset: 1
OS2TypoDescent: 0
OS2TypoDOffset: 1
OS2TypoLinegap: 90
OS2WinAscent: 0
OS2WinAOffset: 1
OS2WinDescent: 0
OS2WinDOffset: 1
HheadAscent: 0
HheadAOffset: 1
HheadDescent: 0
HheadDOffset: 1
MarkAttachClasses: 1
DEI: 91125
LangName: 1033 
Encoding: UnicodeBmp
UnicodeInterp: none
NameList: Adobe Glyph List
DisplaySize: -72
AntiAlias: 1
FitToEm: 1
WinInfo: 64 8 6
BeginPrivate: 9
BlueValues 23 [-12 0 402 414 667 668]
OtherBlues 11 [-263 -263]
BlueFuzz 1 0
BlueScale 8 0.039625
BlueShift 2 21
StdHW 4 [44]
StemSnapH 10 [37 40 44]
StdVW 4 [87]
StemSnapV 4 [87]
EndPrivate
BeginChars: 65536 73

StartChar: a
Encoding: 97 97 0
Width: 426
VWidth: 0
Flags: W
HStem: -8 44<131.218 227.342 353.16 422.859> 202 28<176.285 266> 380 31<151.355 244.417>
VStem: 31 85<50.2813 171.258> 45 91<273.98 369.375> 266 87<66.3157 202 230 361.568> 274 79<33.6293 66>
LayerCount: 3
Fore
SplineSet
178 36 m 0xf0
 222 36 266 67 266 134 c 2
 266 202 l 1
 223 200 155 189 136 170 c 0xec
 119 153 116 139 116 111 c 0
 116 57 144 36 178 36 c 0xf0
136 288 m 0
 136 273 114 268 95 268 c 0
 62 268 45 284 45 322 c 0
 45 383 117 411 209 411 c 0
 299 411 353 370 353 287 c 2xec
 353 61 l 2
 353 37 354 33 375 33 c 0
 381 33 410 35 410 35 c 2
 415 35 423 32 423 18 c 0
 423 4 420 -2 394 -2 c 0
 269 -2 279 6 274 66 c 1
 267 52 259 42 248 31 c 0
 220 2 188 -8 159 -8 c 0
 87 -8 60 25 57 28 c 0
 41 47 31 74 31 111 c 0xf2
 31 152 47 204 146 217 c 0
 177 221 206 225 266 230 c 1
 266 277 l 2
 266 325 259 380 208 380 c 0
 170 380 134 374 134 313 c 0
 134 302 136 295 136 288 c 0
EndSplineSet
Validated: 1
Layer: 2
SplineSet
178 36 m 0xe8
 222 36 266 67 266 134 c 2
 266 202 l 1
 223 200 155 189 136 170 c 0
 119 153 116 139 116 111 c 0
 116 57 144 36 178 36 c 0xe8
208 380 m 0
 170 380 134 373 134 310 c 0
 134 290 139 279 139 276 c 0
 139 269 114 268 91 268 c 0
 67 268 45 279 45 321 c 0
 45 382 117 411 209 411 c 0
 299 411 351 370 351 287 c 0
 351 196.599609375 353 196.599609375 353 61 c 0
 353 37 354 33 375 33 c 0
 381 33 410 35 410 35 c 2
 415 35 423 32 423 18 c 0
 423 4 420 -2 394 -2 c 0
 269 -2 279 6 274 66 c 1xd4
 267 52 259 42 248 31 c 0
 220 2 188 -8 159 -8 c 0
 87 -8 60 25 57 28 c 0
 41 47 31 74 31 111 c 0
 31 152 47 204 146 217 c 0
 177 221 205 225 265 230 c 1
 265 245 266 261 266 277 c 0
 266 325 259 380 208 380 c 0
EndSplineSet
EndChar

StartChar: b
Encoding: 98 98 1
Width: 532
VWidth: 0
Flags: W
HStem: -12 41<238.429 356.719> 379 35<235.116 341.005> 624 44<8.01181 95>
VStem: 92 80<-10.6875 72> 95 89<365 628> 98 81<85.242 333.516> 400 94<94.6791 313.804>
LayerCount: 3
Fore
SplineSet
95 628 m 1xea
 32 625 31 624 23 624 c 0
 12 624 8 629 8 647 c 0
 8 663 11 668 25 668 c 0
 174 668 154 667 187 667 c 1
 184 365 l 1xea
 184 365 218 414 312 414 c 0
 434 414 494 319 494 212 c 0
 494 98 444 -12 324 -12 c 0
 212 -12 172 72 172 72 c 1
 172 -12 167 -12 154 -12 c 0
 100 -12 92 -9 92 3 c 0xf2
 92 4 98 128 98 171 c 0xe6
 98 217 97 263 95 628 c 1xea
179 275 m 2xe6
 179 162 l 2
 179 71 246 29 299 29 c 0
 364 29 400 77 400 208 c 0
 400 316 354 379 293 379 c 0
 243 379 179 338 179 275 c 2xe6
EndSplineSet
Validated: 1
EndChar

StartChar: c
Encoding: 99 99 2
Width: 445
VWidth: 0
Flags: W
HStem: -12 43<176.353 323.248> 379 34<181.286 306.283>
VStem: 28 97<89.6041 297.559> 326 76<255.279 355.81> 351 46<58.0322 115.858>
LayerCount: 3
Fore
SplineSet
326 321 m 0xf0
 326 367 283 379 243 379 c 0
 176 379 125 336 125 221 c 0
 125 65 172 31 255 31 c 0
 314 31 340 64 351 87 c 0
 362 109 362 116 376 116 c 0
 393 116 397 108 397 101 c 0xe8
 397 83 362 -12 238 -12 c 0
 99 -12 28 71 28 190 c 0
 28 326 112 413 237 413 c 0
 382 413 402 325 402 297 c 0
 402 280 394 251 362 251 c 0
 332 251 324 271 324 290 c 0
 324 300 326 311 326 321 c 0xf0
EndSplineSet
Validated: 1
Layer: 2
SplineSet
398 104 m 1
 398 87 365 -12 238 -12 c 0
 99 -12 28 81 28 200 c 0
 28 336 112 413 237 413 c 0
 382 413 402 322 402 294 c 0
 402 277 394 251 362 251 c 0
 275 251 373 378 224 378 c 0
 168 378 124 331 124 207 c 0
 124 104 150 31 253 31 c 0
 312 31 340 64 351 87 c 0
 364 112 361 116 382 116 c 0
 393 116 398 104 398 104 c 1
224 378 m 0
 168 378 124 331 124 207 c 0
 124 103 150 31 256 31 c 0
 351 31 362 114 362 114 c 2
 365 116 370 116 375 116 c 0
 387 116 403 112 404 108 c 1
 404 108 388 -12 245 -12 c 0
 101 -12 28 79 28 200 c 0
 28 336 112 413 237 413 c 0
 382 413 402 322 402 294 c 0
 402 277 394 251 362 251 c 0
 275 251 373 378 224 378 c 0
EndSplineSet
EndChar

StartChar: d
Encoding: 100 100 3
Width: 505
VWidth: 0
Flags: WO
HStem: -10 45<176.183 291.217> 0 33<413 501.996> 368 44<168.32 292.972> 624 44<237.015 324>
VStem: 29 95<97.8282 309.634> 324 96<405.04 628> 332 79<60.5286 340.27 368 440.05> 339 74<33 59>
LayerCount: 3
Fore
SplineSet
420 667 m 1xbc
 415 564 411 526 411 199 c 0xba
 411 69 413 33 413 33 c 1
 481 34 l 2
 498 34 502 32 502 17 c 0
 502 -1 497 -3 483 -3 c 2
 483 -3 415 -1 372 0 c 25
 340 0 l 1
 339 59 l 1x79
 316 22 273 -10 211 -10 c 0
 120 -10 29 52 29 198 c 0
 29 368 139 412 212 412 c 0
 279 412 327 368 327 368 c 1
 324 628 l 1
 256 624 l 2
 242 624 237 627 237 647 c 0
 237 663 240 668 254 668 c 0
 403 668 387 667 420 667 c 1xbc
124 208 m 0
 124 117 154 35 241 35 c 0
 293 35 332 64 332 119 c 2
 332 278 l 2
 332 336 296 368 230 368 c 0
 147 368 124 292 124 208 c 0
EndSplineSet
Validated: 1
EndChar

StartChar: e
Encoding: 101 101 4
Width: 445
VWidth: 0
Flags: W
HStem: -12 43<177.141 322.711> 225 36<134 314> 378 35<169.405 286.103>
VStem: 28 96<96.9833 267.527> 314 91<264 331.316> 357 45<62.8702 115.792>
LayerCount: 3
Fore
SplineSet
402 99 m 0xf4
 402 85 367 -12 240 -12 c 0
 98 -12 28 80 28 200 c 0
 28 336 112 413 237 413 c 0
 382 413 405 285 405 257 c 0xf8
 405 232 396 233 361 230 c 0
 331 227 284 225 266 225 c 0
 190 225 132 230 131 230 c 0
 130 230 124 229 124 207 c 0
 124 105 148 31 250 31 c 0
 314 31 344 65 357 95 c 0
 362 108 364 116 376 116 c 0
 386 116 402 113 402 99 c 0xf4
314 264 m 1
 314 330 305 378 224 378 c 0
 140 378 142 310 134 265 c 1
 134 265 173 261 208 261 c 0
 259 261 313 264 314 264 c 1
EndSplineSet
Validated: 1
Layer: 2
SplineSet
314 264 m 1
 314 330 305 378 224 378 c 0
 140 378 142 310 134 265 c 1xbc
 149 264 173 261 208 261 c 0
 259 261 313 264 314 264 c 1
245 -12 m 0xba
 101 -12 28 79 28 200 c 0
 28 336 112 413 237 413 c 0
 382 413 405 285 405 257 c 0
 405 232 396 233 361 230 c 0
 331 227 284 225 266 225 c 0xdc
 191 225 131 232 131 232 c 1
 131 232 124 232 124 207 c 0
 124 103 150 31 256 31 c 0
 351 31 362 114 362 114 c 2
 365 116 370 116 375 116 c 0
 387 116 403 112 404 108 c 1
 404 108 388 -12 245 -12 c 0xba
EndSplineSet
EndChar

StartChar: f
Encoding: 102 102 5
Width: 351
VWidth: 0
Flags: W
HStem: 0 33<34.0037 118 205 301.996> 360 44<29.0148 115 204 314.985> 642 34<224.66 301.258>
VStem: 116 88<33 362 402 614.051> 306 86<547.906 638.939>
LayerCount: 3
Fore
SplineSet
118 33 m 1
 116 362 l 1
 48 360 l 2
 34 360 29 363 29 383 c 0
 29 399 32 404 46 404 c 0
 48 404 78 403 115 402 c 1
 115 426 114 449 114 471 c 0
 114 591 130 676 273 676 c 0
 351 676 392 640 392 589 c 0
 392 555 369 542 346 542 c 0
 310 542 304 558 304 574 c 0
 304 587 306 577 306 606 c 0
 306 631 293 642 261 642 c 0
 217 642 206 601 205 527 c 2
 204 402 l 1
 294 404 l 2
 311 404 315 400 315 383 c 0
 315 363 310 360 296 360 c 2
 204 362 l 1
 205 33 l 1
 281 34 l 2
 298 34 302 32 302 17 c 0
 302 -1 297 -3 283 -3 c 2
 283 -3 210 0 164 0 c 24
 121 0 53 -3 53 -3 c 2
 39 -3 34 -1 34 17 c 0
 34 32 38 34 55 34 c 2
 118 33 l 1
EndSplineSet
Validated: 1
Layer: 2
SplineSet
204 402 m 5
 315 402 l 5
 315 362 l 5
 204 362 l 5
 205 36 l 5
 302 36 l 5
 302 0 l 5
 39 0 l 5
 39 36 l 5
 118 36 l 5
 116 362 l 5
 29 362 l 5
 29 402 l 5
 116 402 l 5
 116 476 l 6
 116 654 195 676 273 676 c 4
 351 676 392 640 392 589 c 4
 392 555 369 542 346 542 c 4
 310 542 306 572 306 593 c 6
 306 606 l 6
 306 631 293 640 261 640 c 4
 217 640 206 601 205 527 c 6
 204 402 l 5
EndSplineSet
EndChar

StartChar: g
Encoding: 103 103 6
Width: 471
VWidth: 0
Flags: MW
HStem: -263 34<112.856 275.242> 117 29<171.39 249.602> 384 29<167.981 247.685>
VStem: 1 44<54.8665 128.592> 2 54<-183.355 -72.8837> 55 83<179.258 345.222> 279 80<177.735 352.187> 344 58<-176.377 -66.41> 403 69<298.976 353.31>
LayerCount: 3
Fore
SplineSet
88 -44 m 1xe980
 88 -44 56 -68 56 -120 c 0
 56 -176 99 -229 189 -229 c 0
 305 -229 344 -166 344 -120 c 0
 344 -81 338 -48 233 -48 c 2
 162 -48 l 2
 143 -48 88 -44 88 -44 c 1xe980
359 313 m 0xf680
 359 303 363 298 363 263 c 0
 363 160 281 117 207 117 c 0
 139 117 101 147 101 147 c 1
 84 144 45 128 45 89 c 0xf680
 45 51 74 49 105 49 c 2
 221 49 l 2
 324 49 402 33 402 -95 c 0
 402 -215 298 -263 192 -263 c 0
 53 -263 2 -209 2 -135 c 0xe980
 2 -68 66 -37 66 -37 c 1
 66 -37 1 -5 1 74 c 0
 1 133 66 163 84 169 c 1
 84 169 55 201 55 270 c 0
 55 339 108 413 207 413 c 0
 303 413 342 347 342 347 c 1
 353 363 377 389 415 389 c 0
 450 389 472 368 472 337 c 0
 472 302 451 297 437 297 c 0
 405 297 403 311 403 328 c 0
 403 346 396 354 388 354 c 0
 375 354 359 336 359 313 c 0xf680
279 259 m 0
 279 312 272 384 207 384 c 0
 148 384 138 318 138 269 c 0
 138 223 148 146 210 146 c 0
 272 146 279 209 279 259 c 0
EndSplineSet
Validated: 1
Layer: 2
SplineSet
88 -44 m 1xe260
 88 -44 56 -68 56 -120 c 0
 56 -176 99 -229 189 -229 c 0
 305 -229 344 -166 344 -120 c 0
 344 -81 338 -48 233 -48 c 2
 162 -48 l 2
 143 -48 88 -44 88 -44 c 1xe260
207 413 m 0xed20
 303 413 342 347 342 347 c 1
 353 363 376 389 416 389 c 0
 445 389 472 374 472 337 c 0
 472 301 448 297 437 297 c 0
 412 297 403 310 403 326 c 2
 403 332 l 2
 403 341 402 355 393 355 c 0
 369 355 354 329 354 329 c 1
 354 329 363 305 363 263 c 0
 363 160 281 117 207 117 c 0
 139 117 101 147 101 147 c 1
 84 144 45 128 45 89 c 0xf5a0
 45 51 74 49 105 49 c 2
 221 49 l 2
 324 49 402 33 402 -95 c 0
 402 -215 298 -263 192 -263 c 0
 53 -263 2 -209 2 -135 c 0xf260
 2 -68 66 -37 66 -37 c 1
 66 -37 1 -5 1 74 c 0
 1 133 66 163 84 169 c 1
 84 169 55 201 55 270 c 0
 55 339 108 413 207 413 c 0xed20
279 259 m 0
 279 312 272 384 207 384 c 0xe9a0
 148 384 138 318 138 269 c 0
 138 223 148 146 210 146 c 0
 272 146 279 209 279 259 c 0
EndSplineSet
EndChar

StartChar: h
Encoding: 104 104 7
Width: 541
VWidth: 0
Flags: W
HStem: -3 37<12.0273 91 178 264.973 293.027 377 464 535.973> 373 40<245.996 363.754> 624 44<10.0118 97>
VStem: 91 87<33 315.304 327 357.909> 97 92<527 628> 377 87<33 361.277>
LayerCount: 3
Fore
SplineSet
91 232 m 2xf4
 91 390 97 628 97 628 c 1
 34 625 33 624 25 624 c 0
 14 624 10 629 10 647 c 0
 10 663 13 668 27 668 c 0
 176 668 156 667 189 667 c 1xec
 172 327 l 1
 172 327 217 413 337 413 c 0
 436 413 464 368 464 292 c 2
 464 33 l 1
 515 34 l 2
 532 34 536 32 536 17 c 0
 536 -1 531 -3 517 -3 c 2
 517 -3 460 0 423 0 c 24
 380 0 312 -3 312 -3 c 2
 298 -3 293 -1 293 17 c 0
 293 32 297 34 314 34 c 2
 377 33 l 1
 377 284 l 2
 377 351 367 373 307 373 c 0
 250 373 178 315 178 260 c 2
 178 33 l 1
 244 34 l 2
 261 34 265 32 265 17 c 0
 265 -1 260 -3 246 -3 c 2
 246 -3 180 0 137 0 c 24
 96 0 31 -3 31 -3 c 2
 17 -3 12 -1 12 17 c 0
 12 32 16 34 33 34 c 2
 91 33 l 1
 91 232 l 2xf4
EndSplineSet
Validated: 1
EndChar

StartChar: i
Encoding: 105 105 8
Width: 289
VWidth: 0
Flags: W
HStem: 0 33<15.0037 99 186 262.996> 363 40<14.0118 96> 558 100<101.217 182.565>
VStem: 92 99<566.701 649.245> 99 87<33 367>
LayerCount: 3
Fore
SplineSet
186 33 m 1xe8
 242 34 l 2
 259 34 263 32 263 17 c 0
 263 -1 258 -3 244 -3 c 2
 244 -3 188 0 145 0 c 0
 100 0 34 -3 34 -3 c 2
 20 -3 15 -1 15 17 c 0
 15 32 19 34 36 34 c 2
 99 33 l 1
 99 259 l 2
 99 292 96 367 96 367 c 1
 33 364 37 363 29 363 c 0
 18 363 14 364 14 382 c 0
 14 398 17 403 31 403 c 0
 180 403 190 402 190 402 c 1
 190 402 186 298 186 257 c 2
 186 33 l 1xe8
92 608 m 0xf0
 92 635 115 658 139 658 c 0
 157 658 191 648 191 607 c 0
 191 570 167 558 141 558 c 0
 114 558 92 581 92 608 c 0xf0
EndSplineSet
Validated: 1
EndChar

StartChar: j
Encoding: 106 106 9
Width: 240
VWidth: 0
Flags: W
HStem: 240 94<82.5012 158.468>
VStem: 70 100<251.852 326.6>
LayerCount: 3
Fore
SplineSet
70 294 m 0
 70 320 96 334 119 334 c 0
 143 334 170 320 170 293 c 0
 170 268 147 240 121 240 c 0
 95 240 70 268 70 294 c 0
EndSplineSet
Validated: 1
EndChar

StartChar: k
Encoding: 107 107 10
Width: 536
VWidth: 0
Flags: W
HStem: -3 37<22.0273 106 193 259.973 289.027 346 453 529.973> 194 36<193 241.812> 373 33<242.004 324 376 474.996> 624 44<16.0118 103>
VStem: 106 87<33 194 230 628>
DStem2: 303 214 247 171 0.63809 -0.769962<-32.0197 166.801> 255 267 303 273 0.545544 0.838082<-5.14618 126.479>
LayerCount: 3
Fore
SplineSet
324 373 m 1
 263 372 l 2
 246 372 242 374 242 389 c 0
 242 407 247 409 261 409 c 2
 261 409 324 406 365 406 c 24
 401 406 456 409 456 409 c 2
 470 409 475 407 475 389 c 0
 475 374 471 372 454 372 c 2
 376 373 l 1
 303 273 l 2
 290 256 285 248 285 241 c 0
 285 234 291 228 303 214 c 2
 453 33 l 1
 509 34 l 2
 526 34 530 32 530 17 c 0
 530 -1 525 -3 511 -3 c 2
 511 -3 445 0 402 0 c 0
 357 0 308 -3 308 -3 c 2
 294 -3 289 -1 289 17 c 0
 289 32 293 34 310 34 c 2
 346 33 l 1
 247 171 l 2
 232 192 230 194 215 194 c 2
 193 194 l 1
 193 33 l 1
 239 34 l 2
 256 34 260 32 260 17 c 0
 260 -1 255 -3 241 -3 c 2
 241 -3 195 0 152 0 c 0
 107 0 41 -3 41 -3 c 2
 27 -3 22 -1 22 17 c 0
 22 32 26 34 43 34 c 2
 106 33 l 1
 106 297 l 2
 106 594 103 628 103 628 c 1
 40 625 39 624 31 624 c 0
 20 624 16 629 16 647 c 0
 16 663 19 668 33 668 c 0
 182 668 162 667 195 667 c 1
 193 527 193 587 193 478 c 2
 193 230 l 1
 212 230 l 2
 230 230 232 232 255 267 c 2
 324 373 l 1
EndSplineSet
Validated: 1
EndChar

StartChar: l
Encoding: 108 108 11
Width: 286
VWidth: 0
Flags: W
HStem: 0 33<12.0037 101 188 274.996> 624 44<11.0118 98>
VStem: 101 87<33 628>
LayerCount: 3
Fore
SplineSet
188 33 m 1
 254 34 l 2
 271 34 275 32 275 17 c 0
 275 -1 270 -3 256 -3 c 2
 256 -3 190 0 147 0 c 24
 102 0 31 -3 31 -3 c 2
 17 -3 12 -1 12 17 c 0
 12 32 16 34 33 34 c 2
 101 33 l 1
 101 297 l 2
 101 594 98 628 98 628 c 1
 35 625 34 624 26 624 c 0
 15 624 11 629 11 647 c 0
 11 663 14 668 28 668 c 0
 177 668 159 667 192 667 c 1
 188 431 188 560 188 275 c 2
 188 33 l 1
EndSplineSet
Validated: 1
EndChar

StartChar: m
Encoding: 109 109 12
Width: 240
VWidth: 0
Flags: W
HStem: 240 94<82.5012 158.468>
VStem: 70 100<251.852 326.6>
LayerCount: 3
Fore
SplineSet
70 294 m 0
 70 320 96 334 119 334 c 0
 143 334 170 320 170 293 c 0
 170 268 147 240 121 240 c 0
 95 240 70 268 70 294 c 0
EndSplineSet
Validated: 1
EndChar

StartChar: n
Encoding: 110 110 13
Width: 240
VWidth: 0
Flags: W
HStem: 240 94<82.5012 158.468>
VStem: 70 100<251.852 326.6>
LayerCount: 3
Fore
SplineSet
70 294 m 0
 70 320 96 334 119 334 c 0
 143 334 170 320 170 293 c 0
 170 268 147 240 121 240 c 0
 95 240 70 268 70 294 c 0
EndSplineSet
Validated: 1
EndChar

StartChar: o
Encoding: 111 111 14
Width: 240
VWidth: 0
Flags: W
HStem: 240 94<82.5012 158.468>
VStem: 70 100<251.852 326.6>
LayerCount: 3
Fore
SplineSet
70 294 m 0
 70 320 96 334 119 334 c 0
 143 334 170 320 170 293 c 0
 170 268 147 240 121 240 c 0
 95 240 70 268 70 294 c 0
EndSplineSet
Validated: 1
EndChar

StartChar: p
Encoding: 112 112 15
Width: 240
VWidth: 0
Flags: W
HStem: 240 94<82.5012 158.468>
VStem: 70 100<251.852 326.6>
LayerCount: 3
Fore
SplineSet
70 294 m 0
 70 320 96 334 119 334 c 0
 143 334 170 320 170 293 c 0
 170 268 147 240 121 240 c 0
 95 240 70 268 70 294 c 0
EndSplineSet
Validated: 1
EndChar

StartChar: q
Encoding: 113 113 16
Width: 240
VWidth: 0
Flags: W
HStem: 240 94<82.5012 158.468>
VStem: 70 100<251.852 326.6>
LayerCount: 3
Fore
SplineSet
70 294 m 0
 70 320 96 334 119 334 c 0
 143 334 170 320 170 293 c 0
 170 268 147 240 121 240 c 0
 95 240 70 268 70 294 c 0
EndSplineSet
Validated: 1
EndChar

StartChar: r
Encoding: 114 114 17
Width: 240
VWidth: 0
Flags: W
HStem: 240 94<82.5012 158.468>
VStem: 70 100<251.852 326.6>
LayerCount: 3
Fore
SplineSet
70 294 m 0
 70 320 96 334 119 334 c 0
 143 334 170 320 170 293 c 0
 170 268 147 240 121 240 c 0
 95 240 70 268 70 294 c 0
EndSplineSet
Validated: 1
EndChar

StartChar: s
Encoding: 115 115 18
Width: 240
VWidth: 0
Flags: W
HStem: 240 94<82.5012 158.468>
VStem: 70 100<251.852 326.6>
LayerCount: 3
Fore
SplineSet
70 294 m 0
 70 320 96 334 119 334 c 0
 143 334 170 320 170 293 c 0
 170 268 147 240 121 240 c 0
 95 240 70 268 70 294 c 0
EndSplineSet
Validated: 1
EndChar

StartChar: t
Encoding: 116 116 19
Width: 240
VWidth: 0
Flags: W
HStem: 240 94<82.5012 158.468>
VStem: 70 100<251.852 326.6>
LayerCount: 3
Fore
SplineSet
70 294 m 0
 70 320 96 334 119 334 c 0
 143 334 170 320 170 293 c 0
 170 268 147 240 121 240 c 0
 95 240 70 268 70 294 c 0
EndSplineSet
Validated: 1
EndChar

StartChar: u
Encoding: 117 117 20
Width: 240
VWidth: 0
Flags: W
HStem: 240 94<82.5012 158.468>
VStem: 70 100<251.852 326.6>
LayerCount: 3
Fore
SplineSet
70 294 m 0
 70 320 96 334 119 334 c 0
 143 334 170 320 170 293 c 0
 170 268 147 240 121 240 c 0
 95 240 70 268 70 294 c 0
EndSplineSet
Validated: 1
EndChar

StartChar: v
Encoding: 118 118 21
Width: 240
VWidth: 0
Flags: W
HStem: 240 94<82.5012 158.468>
VStem: 70 100<251.852 326.6>
LayerCount: 3
Fore
SplineSet
70 294 m 0
 70 320 96 334 119 334 c 0
 143 334 170 320 170 293 c 0
 170 268 147 240 121 240 c 0
 95 240 70 268 70 294 c 0
EndSplineSet
Validated: 1
EndChar

StartChar: w
Encoding: 119 119 22
Width: 240
VWidth: 0
Flags: W
HStem: 240 94<82.5012 158.468>
VStem: 70 100<251.852 326.6>
LayerCount: 3
Fore
SplineSet
70 294 m 0
 70 320 96 334 119 334 c 0
 143 334 170 320 170 293 c 0
 170 268 147 240 121 240 c 0
 95 240 70 268 70 294 c 0
EndSplineSet
Validated: 1
EndChar

StartChar: x
Encoding: 120 120 23
Width: 240
VWidth: 0
Flags: W
HStem: 240 94<82.5012 158.468>
VStem: 70 100<251.852 326.6>
LayerCount: 3
Fore
SplineSet
70 294 m 0
 70 320 96 334 119 334 c 0
 143 334 170 320 170 293 c 0
 170 268 147 240 121 240 c 0
 95 240 70 268 70 294 c 0
EndSplineSet
Validated: 1
EndChar

StartChar: y
Encoding: 121 121 24
Width: 240
VWidth: 0
Flags: W
HStem: 240 94<82.5012 158.468>
VStem: 70 100<251.852 326.6>
LayerCount: 3
Fore
SplineSet
70 294 m 0
 70 320 96 334 119 334 c 0
 143 334 170 320 170 293 c 0
 170 268 147 240 121 240 c 0
 95 240 70 268 70 294 c 0
EndSplineSet
Validated: 1
EndChar

StartChar: z
Encoding: 122 122 25
Width: 240
VWidth: 0
Flags: W
HStem: 240 94<82.5012 158.468>
VStem: 70 100<251.852 326.6>
LayerCount: 3
Fore
SplineSet
70 294 m 0
 70 320 96 334 119 334 c 0
 143 334 170 320 170 293 c 0
 170 268 147 240 121 240 c 0
 95 240 70 268 70 294 c 0
EndSplineSet
Validated: 1
EndChar

StartChar: period
Encoding: 46 46 53
Width: 240
VWidth: 0
Flags: W
HStem: 240 94<82.5012 158.468>
VStem: 70 100<251.852 326.6>
LayerCount: 3
Fore
SplineSet
70 294 m 4
 70 320 96 334 119 334 c 4
 143 334 170 320 170 293 c 4
 170 268 147 240 121 240 c 4
 95 240 70 268 70 294 c 4
EndSplineSet
Validated: 1
EndChar

StartChar: hyphen
Encoding: 45 45 54
Width: 240
VWidth: 0
Flags: W
HStem: 240 94<82.5012 158.468>
VStem: 70 100<251.852 326.6>
LayerCount: 3
Fore
SplineSet
70 294 m 4
 70 320 96 334 119 334 c 4
 143 334 170 320 170 293 c 4
 170 268 147 240 121 240 c 4
 95 240 70 268 70 294 c 4
EndSplineSet
Validated: 1
EndChar

StartChar: comma
Encoding: 44 44 55
Width: 240
VWidth: 0
Flags: W
HStem: 240 94<82.5012 158.468>
VStem: 70 100<251.852 326.6>
LayerCount: 3
Fore
SplineSet
70 294 m 4
 70 320 96 334 119 334 c 4
 143 334 170 320 170 293 c 4
 170 268 147 240 121 240 c 4
 95 240 70 268 70 294 c 4
EndSplineSet
Validated: 1
EndChar

StartChar: parenright
Encoding: 41 41 56
Width: 240
VWidth: 0
Flags: W
HStem: 240 94<82.5012 158.468>
VStem: 70 100<251.852 326.6>
LayerCount: 3
Fore
SplineSet
70 294 m 4
 70 320 96 334 119 334 c 4
 143 334 170 320 170 293 c 4
 170 268 147 240 121 240 c 4
 95 240 70 268 70 294 c 4
EndSplineSet
Validated: 1
EndChar

StartChar: parenleft
Encoding: 40 40 57
Width: 240
VWidth: 0
Flags: W
HStem: 240 94<82.5012 158.468>
VStem: 70 100<251.852 326.6>
LayerCount: 3
Fore
SplineSet
70 294 m 4
 70 320 96 334 119 334 c 4
 143 334 170 320 170 293 c 4
 170 268 147 240 121 240 c 4
 95 240 70 268 70 294 c 4
EndSplineSet
Validated: 1
EndChar

StartChar: ampersand
Encoding: 38 38 58
Width: 240
VWidth: 0
Flags: W
HStem: 240 94<82.5012 158.468>
VStem: 70 100<251.852 326.6>
LayerCount: 3
Fore
SplineSet
70 294 m 4
 70 320 96 334 119 334 c 4
 143 334 170 320 170 293 c 4
 170 268 147 240 121 240 c 4
 95 240 70 268 70 294 c 4
EndSplineSet
Validated: 1
EndChar

StartChar: exclam
Encoding: 33 33 59
Width: 240
VWidth: 0
Flags: W
HStem: 240 94<82.5012 158.468>
VStem: 70 100<251.852 326.6>
LayerCount: 3
Fore
SplineSet
70 294 m 4
 70 320 96 334 119 334 c 4
 143 334 170 320 170 293 c 4
 170 268 147 240 121 240 c 4
 95 240 70 268 70 294 c 4
EndSplineSet
Validated: 1
EndChar

StartChar: zero
Encoding: 48 48 60
Width: 240
VWidth: 0
Flags: W
HStem: 240 94<82.5012 158.468>
VStem: 70 100<251.852 326.6>
LayerCount: 3
Fore
SplineSet
70 294 m 4
 70 320 96 334 119 334 c 4
 143 334 170 320 170 293 c 4
 170 268 147 240 121 240 c 4
 95 240 70 268 70 294 c 4
EndSplineSet
Validated: 1
EndChar

StartChar: one
Encoding: 49 49 61
Width: 240
VWidth: 0
Flags: W
HStem: 240 94<82.5012 158.468>
VStem: 70 100<251.852 326.6>
LayerCount: 3
Fore
SplineSet
70 294 m 4
 70 320 96 334 119 334 c 4
 143 334 170 320 170 293 c 4
 170 268 147 240 121 240 c 4
 95 240 70 268 70 294 c 4
EndSplineSet
Validated: 1
EndChar

StartChar: two
Encoding: 50 50 62
Width: 240
VWidth: 0
Flags: W
HStem: 240 94<82.5012 158.468>
VStem: 70 100<251.852 326.6>
LayerCount: 3
Fore
SplineSet
70 294 m 4
 70 320 96 334 119 334 c 4
 143 334 170 320 170 293 c 4
 170 268 147 240 121 240 c 4
 95 240 70 268 70 294 c 4
EndSplineSet
Validated: 1
EndChar

StartChar: three
Encoding: 51 51 63
Width: 240
VWidth: 0
Flags: W
HStem: 240 94<82.5012 158.468>
VStem: 70 100<251.852 326.6>
LayerCount: 3
Fore
SplineSet
70 294 m 4
 70 320 96 334 119 334 c 4
 143 334 170 320 170 293 c 4
 170 268 147 240 121 240 c 4
 95 240 70 268 70 294 c 4
EndSplineSet
Validated: 1
EndChar

StartChar: four
Encoding: 52 52 64
Width: 240
VWidth: 0
Flags: W
HStem: 240 94<82.5012 158.468>
VStem: 70 100<251.852 326.6>
LayerCount: 3
Fore
SplineSet
70 294 m 4
 70 320 96 334 119 334 c 4
 143 334 170 320 170 293 c 4
 170 268 147 240 121 240 c 4
 95 240 70 268 70 294 c 4
EndSplineSet
Validated: 1
EndChar

StartChar: five
Encoding: 53 53 65
Width: 240
VWidth: 0
Flags: W
HStem: 240 94<82.5012 158.468>
VStem: 70 100<251.852 326.6>
LayerCount: 3
Fore
SplineSet
70 294 m 4
 70 320 96 334 119 334 c 4
 143 334 170 320 170 293 c 4
 170 268 147 240 121 240 c 4
 95 240 70 268 70 294 c 4
EndSplineSet
Validated: 1
EndChar

StartChar: six
Encoding: 54 54 66
Width: 240
VWidth: 0
Flags: W
HStem: 240 94<82.5012 158.468>
VStem: 70 100<251.852 326.6>
LayerCount: 3
Fore
SplineSet
70 294 m 4
 70 320 96 334 119 334 c 4
 143 334 170 320 170 293 c 4
 170 268 147 240 121 240 c 4
 95 240 70 268 70 294 c 4
EndSplineSet
Validated: 1
EndChar

StartChar: seven
Encoding: 55 55 67
Width: 240
VWidth: 0
Flags: W
HStem: 240 94<82.5012 158.468>
VStem: 70 100<251.852 326.6>
LayerCount: 3
Fore
SplineSet
70 294 m 4
 70 320 96 334 119 334 c 4
 143 334 170 320 170 293 c 4
 170 268 147 240 121 240 c 4
 95 240 70 268 70 294 c 4
EndSplineSet
Validated: 1
EndChar

StartChar: eight
Encoding: 56 56 68
Width: 240
VWidth: 0
Flags: W
HStem: 240 94<82.5012 158.468>
VStem: 70 100<251.852 326.6>
LayerCount: 3
Fore
SplineSet
70 294 m 4
 70 320 96 334 119 334 c 4
 143 334 170 320 170 293 c 4
 170 268 147 240 121 240 c 4
 95 240 70 268 70 294 c 4
EndSplineSet
Validated: 1
EndChar

StartChar: nine
Encoding: 57 57 69
Width: 240
VWidth: 0
Flags: W
HStem: 240 94<82.5012 158.468>
VStem: 70 100<251.852 326.6>
LayerCount: 3
Fore
SplineSet
70 294 m 4
 70 320 96 334 119 334 c 4
 143 334 170 320 170 293 c 4
 170 268 147 240 121 240 c 4
 95 240 70 268 70 294 c 4
EndSplineSet
Validated: 1
EndChar

StartChar: colon
Encoding: 58 58 70
Width: 240
VWidth: 0
Flags: W
HStem: 240 94<82.5012 158.468>
VStem: 70 100<251.852 326.6>
LayerCount: 3
Fore
SplineSet
70 294 m 4
 70 320 96 334 119 334 c 4
 143 334 170 320 170 293 c 4
 170 268 147 240 121 240 c 4
 95 240 70 268 70 294 c 4
EndSplineSet
Validated: 1
EndChar

StartChar: semicolon
Encoding: 59 59 71
Width: 240
VWidth: 0
Flags: W
HStem: 240 94<82.5012 158.468>
VStem: 70 100<251.852 326.6>
LayerCount: 3
Fore
SplineSet
70 294 m 4
 70 320 96 334 119 334 c 4
 143 334 170 320 170 293 c 4
 170 268 147 240 121 240 c 4
 95 240 70 268 70 294 c 4
EndSplineSet
Validated: 1
EndChar

StartChar: question
Encoding: 63 63 72
Width: 240
VWidth: 0
Flags: W
HStem: 240 94<82.5012 158.468>
VStem: 70 100<251.852 326.6>
LayerCount: 3
Fore
SplineSet
70 294 m 4
 70 320 96 334 119 334 c 4
 143 334 170 320 170 293 c 4
 170 268 147 240 121 240 c 4
 95 240 70 268 70 294 c 4
EndSplineSet
Validated: 1
EndChar
